<svg width="600" height="563" viewBox="0 0 600 563" fill="none" xmlns="http://www.w3.org/2000/svg">
<g clip-path="url(#clip0_19_57)">
<path fill-rule="evenodd" clip-rule="evenodd" d="M-0.000244141 0L106.227 120.879C126.74 107.204 177.729 80.1465 217.582 81.3187H277.656H322.344H382.418C422.271 80.1465 473.26 107.204 493.773 120.879L600 0C598.089 56.3025 598.349 108.463 598.588 156.467C599.721 383.746 600.388 517.835 368.022 557.099C367.476 557.242 366.902 557.379 366.3 557.509C319.57 567.634 258.852 560.684 234.432 557.509C-0.393234 518.775 0.275404 384.544 1.41153 156.467C1.65065 108.463 1.91047 56.3025 -0.000244141 0Z" fill="url(#paint0_linear_19_57)"/>
<path d="M214.008 250.836C215.935 252.763 216.898 255.461 216.898 258.93C216.898 262.398 216.609 265.482 216.031 268.18C215.549 270.878 214.538 273.576 212.996 276.273C209.913 281.573 204.035 287.065 195.363 292.75L144.488 326.57L195.363 360.391C207.408 368.773 214.297 376.964 216.031 384.961C216.609 387.659 216.898 390.116 216.898 392.332C216.898 397.053 215.935 400.378 214.008 402.305L121.797 338.855C116.401 335.098 113.703 331.003 113.703 326.57C113.703 322.138 116.401 318.043 121.797 314.285L214.008 250.836ZM259.68 451.59C251.297 451.59 247.105 446.772 247.105 437.137C247.105 433.283 248.214 428.128 250.43 421.672L327.32 183.629C328.958 182.376 330.934 181.75 333.246 181.75C341.629 181.75 345.82 186.568 345.82 196.203C345.82 200.057 344.712 205.212 342.496 211.668L265.605 449.711C263.967 450.964 261.992 451.59 259.68 451.59ZM379.496 250.836C377.569 252.763 376.605 255.461 376.605 258.93C376.605 262.398 376.846 265.482 377.328 268.18C377.906 270.878 378.966 273.576 380.508 276.273C383.591 281.573 389.469 287.065 398.141 292.75L449.016 326.57L398.141 360.391C386.096 368.773 379.207 376.964 377.473 384.961C376.895 387.659 376.605 390.116 376.605 392.332C376.605 397.053 377.569 400.378 379.496 402.305L471.707 338.855C477.103 335.098 479.801 331.003 479.801 326.57C479.801 322.138 477.103 318.043 471.707 314.285L379.496 250.836Z" fill="#2C2B32"/>
</g>
<defs>
<linearGradient id="paint0_linear_19_57" x1="-9.15211e-05" y1="335.531" x2="600.733" y2="331.136" gradientUnits="userSpaceOnUse">
<stop stop-color="#4AADF1"/>
<stop offset="1" stop-color="#1573B1"/>
</linearGradient>
<clipPath id="clip0_19_57">
<rect width="600" height="563" fill="white"/>
</clipPath>
</defs>
</svg>
